<?xml version="1.0" standalone="no"?>
<!DOCTYPE svg PUBLIC "-//W3C//DTD SVG 20010904//EN"
 "http://www.w3.org/TR/2001/REC-SVG-20010904/DTD/svg10.dtd">
<svg version="1.0" xmlns="http://www.w3.org/2000/svg"
 width="480.000000pt" height="480.000000pt" viewBox="0 0 480.000000 480.000000"
 preserveAspectRatio="xMidYMid meet">

<g transform="translate(0.000000,480.000000) scale(0.100000,-0.100000)"
fill="#000000" stroke="none">
<path d="M2366 4373 c-22 -6 -2074 -1094 -2129 -1130 -24 -15 -46 -41 -58 -66
-17 -39 -19 -71 -19 -469 l0 -428 2240 0 2240 0 0 423 c0 248 -4 437 -10 458
-6 19 -20 45 -33 57 -20 19 -1949 1050 -2112 1128 -68 33 -82 36 -119 27z
m134 -358 c65 -23 116 -69 149 -137 94 -188 -38 -408 -245 -408 -118 0 -203
50 -253 152 -73 144 -20 307 121 377 71 36 156 42 228 16z m-432 -887 l-3
-263 -37 -3 -38 -3 0 265 0 266 40 0 40 0 -2 -262z m522 72 l0 -190 -45 0 -45
0 0 79 0 80 -42 3 c-40 3 -43 5 -43 33 0 28 3 30 43 33 l42 3 0 75 0 74 45 0
45 0 0 -190z m495 70 l0 -85 -142 -3 -143 -3 0 -24 0 -25 150 0 150 0 0 -35 0
-35 -80 0 -80 0 0 -35 0 -35 100 0 100 0 0 -35 0 -35 -240 0 -240 0 0 35 0 35
100 0 100 0 0 35 0 34 -72 3 -73 3 0 90 0 90 143 3 c133 2 142 4 142 22 0 18
-9 20 -142 22 l-143 3 -3 33 -3 32 188 -2 188 -3 0 -85z m-1345 20 l0 -60 50
0 50 0 0 60 0 60 40 0 40 0 0 -180 0 -180 -130 0 -130 0 0 180 0 180 40 0 40
0 0 -60z m685 18 c-16 -98 -85 -186 -178 -229 -56 -25 -64 -24 -82 11 l-15 29
47 21 c53 23 107 70 129 112 8 15 14 29 14 33 0 3 -36 5 -80 5 l-80 0 0 30 0
30 126 0 126 0 -7 -42z m-105 -313 l0 -55 141 0 140 0 -3 -32 -3 -33 -175 0
-175 0 -3 88 -3 87 41 0 40 0 0 -55z m-520 -322 l23 -78 25 78 c24 72 28 77
54 77 15 0 28 -4 28 -9 0 -5 -16 -55 -36 -110 -36 -100 -37 -101 -69 -101 -32
0 -33 1 -69 103 -20 57 -36 106 -36 110 0 4 13 7 28 7 27 0 30 -4 52 -77z
m265 2 c14 -13 25 -36 25 -50 0 -24 -3 -25 -56 -25 -40 0 -54 -3 -51 -12 3 -9
21 -12 56 -10 55 3 62 -5 30 -34 -14 -12 -34 -18 -62 -18 -53 2 -77 30 -77 89
0 35 5 48 26 64 36 28 79 27 109 -4z m205 -81 l0 -103 -30 -16 c-35 -18 -60
-19 -94 -4 -55 25 -32 62 24 39 31 -13 50 -7 50 15 0 10 -9 12 -34 8 -48 -8
-76 22 -76 82 0 65 22 83 99 83 l61 0 0 -104z m160 86 c16 -16 20 -33 20 -85
l0 -66 -32 0 c-18 0 -48 -1 -66 -1 -40 -1 -54 12 -54 48 0 32 25 54 63 54 15
0 31 5 34 10 9 15 -24 25 -38 11 -14 -14 -57 -15 -57 -1 0 23 41 50 75 50 22
0 43 -8 55 -20z m172 14 c22 -6 38 -55 38 -115 0 -48 -1 -49 -30 -49 l-30 0 0
61 c0 57 -1 60 -22 57 -20 -3 -23 -10 -26 -60 -3 -54 -5 -58 -27 -58 -25 0
-25 1 -25 84 l0 85 53 -1 c28 0 59 -2 69 -4z m308 -20 c0 -16 -7 -24 -22 -26
-20 -3 -23 -10 -26 -60 -3 -57 -4 -58 -32 -58 l-30 0 0 84 0 84 55 0 c51 -1
55 -2 55 -24z m145 1 c28 -27 34 -88 11 -117 -45 -59 -138 -36 -152 37 -6 34
15 89 38 98 34 14 80 6 103 -18z m-285 -55 c0 -18 -7 -20 -55 -20 -48 0 -55 2
-55 20 0 18 7 20 55 20 48 0 55 -2 55 -20z"/>
<path d="M2338 3976 c-205 -56 -235 -337 -45 -435 135 -69 304 10 336 159 37
171 -122 322 -291 276z m40 -122 c13 -8 28 -26 34 -40 11 -22 12 -23 29 -8 10
9 39 19 64 21 43 5 45 5 45 -21 0 -63 -52 -126 -105 -126 -11 0 -15 -11 -15
-40 0 -33 -3 -40 -20 -40 -18 0 -20 7 -20 59 0 53 -2 59 -23 65 -40 10 -76 45
-88 86 -17 57 -7 74 39 65 20 -3 47 -13 60 -21z"/>
<path d="M2310 3834 c0 -25 44 -73 68 -74 22 0 13 28 -19 54 -29 25 -49 33
-49 20z"/>
<path d="M2455 3765 c-31 -30 -33 -55 -5 -48 20 5 60 48 60 64 0 17 -31 8 -55
-16z"/>
<path d="M1740 3105 l0 -55 50 0 50 0 0 55 0 55 -50 0 -50 0 0 -55z"/>
<path d="M1986 2645 c-4 -11 2 -15 24 -15 32 0 40 14 14 24 -24 9 -31 7 -38
-9z"/>
<path d="M2172 2648 c-25 -25 -8 -78 25 -78 17 0 29 49 16 68 -13 21 -26 25
-41 10z"/>
<path d="M2360 2590 c-12 -7 -12 -12 -3 -21 9 -9 16 -9 28 1 29 24 9 42 -25
20z"/>
<path d="M2974 2646 c-10 -27 1 -71 18 -74 25 -5 43 35 29 64 -12 26 -39 32
-47 10z"/>
<path d="M162 1361 c3 -830 3 -840 24 -868 11 -15 40 -38 64 -51 l44 -22 2106
1 c1604 0 2113 3 2139 12 19 7 48 29 65 50 l31 39 3 839 2 839 -2240 0 -2240
0 2 -839z m2373 462 c144 -46 222 -155 213 -297 -7 -108 -39 -158 -232 -354
l-169 -172 212 0 212 0 -3 -87 -3 -88 -362 -3 -363 -2 0 79 0 79 173 160 c285
264 327 315 327 392 0 164 -247 191 -293 32 l-14 -47 -99 0 -99 0 2 48 c11
209 255 337 498 260z m855 17 c217 -35 339 -219 340 -513 0 -246 -82 -417
-238 -494 -52 -26 -67 -28 -167 -28 -100 0 -116 3 -172 29 -109 50 -179 144
-220 296 -23 89 -24 300 0 390 54 204 181 314 377 329 8 0 44 -4 80 -9z
m-1620 -340 l0 -330 60 0 60 0 0 -85 0 -85 -60 0 -60 0 0 -90 0 -90 -105 0
-105 0 0 90 0 90 -240 0 -240 0 0 88 0 88 207 327 208 327 137 0 138 0 0 -330z"/>
<path d="M3243 1639 c-21 -13 -44 -44 -65 -87 l-33 -67 0 -160 c0 -143 3 -166
23 -217 54 -135 180 -167 266 -67 112 132 92 514 -33 597 -44 29 -114 30 -158
1z"/>
<path d="M1429 1383 c-68 -108 -125 -200 -127 -205 -2 -4 55 -8 127 -8 l131 0
0 205 c0 113 -2 205 -4 205 -2 0 -59 -88 -127 -197z"/>
</g>
</svg>
